<?xml version="1.0" encoding="UTF-8"?>
<svg id="Layer_1" data-name="Layer 1" xmlns="http://www.w3.org/2000/svg" viewBox="0 0 134.48 33.23">
  <defs>
    <style>
      .cls-1, .cls-2, .cls-3, .cls-4 {
        isolation: isolate;
      }

      .cls-2 {
        letter-spacing: .05em;
      }

      .cls-2, .cls-5, .cls-3, .cls-4 {
        fill: #231f20;
      }

      .cls-2, .cls-3 {
        font-size: 7.29px;
      }

      .cls-2, .cls-3, .cls-4 {
        font-family: MSReferenceSansSerif, 'MS Reference Sans Serif';
      }

      .cls-5, .cls-6, .cls-7 {
        stroke-width: 0px;
      }

      .cls-6 {
        fill: #2e3192;
      }

      .cls-3 {
        letter-spacing: .06em;
      }

      .cls-4 {
        font-size: 9.2px;
        letter-spacing: .06em;
      }

      .cls-7 {
        fill: #be1e2d;
      }
    </style>
  </defs>
  <g class="cls-1">
    <text class="cls-2" transform="translate(14.75 29.85) scale(.99) skewX(-8.49)"><tspan x="0" y="0">y</tspan></text>
    <text class="cls-3" transform="translate(18.45 29.85) scale(.99) skewX(-8.49)"><tspan x="0" y="0">our in-house </tspan></text>
    <text class="cls-4" transform="translate(70.3 30.85) scale(.99) skewX(-8.49)"><tspan x="0" y="0">&lt;</tspan></text>
    <text class="cls-3" transform="translate(77.27 29.85) scale(.99) skewX(-8.49)"><tspan x="0" y="0">oding </tspan></text>
    <g class="cls-1">
      <path class="cls-5" d="m103.02,24.9l-2.35,8.33h-.76s2.33-8.33,2.33-8.33h.77Z"/>
      <path class="cls-5" d="m108.27,28.22l-5.47,2.28.12-.8,4.31-1.75-3.78-1.75.12-.8,4.79,2.28-.08.55Z"/>
    </g>
    <text class="cls-3" transform="translate(108.83 29.85) scale(.99) skewX(-8.49)"><tspan x="0" y="0">artner</tspan></text>
  </g>
  <g>
    <path class="cls-7" d="m8.2,32.63c.14-.1,12.95-29.62,12.95-29.62.58-1.46.73-2.23.76-3.01l3.19.05c-.14.1-.4.41-.77.91-.36.5-.75,1.26-1.16,2.29,0,0-11.87,29.02-11.89,29.43"/>
    <path class="cls-6" d="m36.16,12.78l-17.64,4.82,1.83-3.88,12.07-3.45-9.16-3.71,1.55-3.83,11.72,4.6-.37,5.46h.01Z"/>
    <path class="cls-6" d="m13.75,17.6l1.56-4.02-10.57-3.72,10.59-3.53,1.56-4.02L.34,7.27l-.34,5.12"/>
  </g>
</svg>